<svg width="1194" height="215" viewBox="0 0 1194 215" fill="none" xmlns="http://www.w3.org/2000/svg">
<g clip-path="url(#clip0_23_16)">
<path d="M87.1368 0V23.65H25.4331V191H87.1368V215H20.5866C9.80528 215 0.97604 206.32 0.078532 195.35L0 193.5V21.5C0 9.68 9.31165 0 20.6988 0H87.1368Z" fill="#4285F4"/>
<path d="M50.1146 149.07H87.5071V167H50.1146V149.07Z" fill="#4285F4"/>
<path d="M50.1146 113.23H87.5071V131.15H50.1146V113.23Z" fill="#4285F4"/>
<path d="M50.1146 77.4H87.5071V95.32H50.1146V77.4Z" fill="#4285F4"/>
<path d="M143.422 214.87C153.751 214.87 162.124 206.847 162.124 196.95C162.124 187.053 153.751 179.03 143.422 179.03C133.093 179.03 124.72 187.053 124.72 196.95C124.72 206.847 133.093 214.87 143.422 214.87Z" fill="#4285F4"/>
<path d="M168.35 107.37C178.679 107.37 187.052 99.347 187.052 89.45C187.052 79.5531 178.679 71.53 168.35 71.53C158.021 71.53 149.648 79.5531 149.648 89.45C149.648 99.347 158.021 107.37 168.35 107.37Z" fill="#4285F4"/>
<path d="M130.958 47.65C141.286 47.65 149.659 39.6269 149.659 29.73C149.659 19.8331 141.286 11.81 130.958 11.81C120.629 11.81 112.256 19.8331 112.256 29.73C112.256 39.6269 120.629 47.65 130.958 47.65Z" fill="#4285F4"/>
<path d="M109.945 95.38H99.8478V83.43H109.945C116.553 83.43 120.356 82.73 121.904 81.23C124.888 78.34 124.81 68.44 124.664 53.44C124.664 49.92 124.597 45.93 124.597 41.63H137.072C137.072 45.88 137.072 49.84 137.139 53.34C137.319 73.23 137.408 83.22 130.767 89.64C125.539 94.68 117.675 95.38 109.945 95.38Z" fill="#4285F4"/>
<path d="M130.397 131.28H121.635C117.921 131.28 114.096 131.28 109.922 131.28H99.8478V119.27H109.945C114.152 119.27 118 119.27 121.725 119.27C141.806 119.37 155.067 119.44 159.252 115.37C161.372 113.3 162.292 108.9 162.124 101.51L174.588 101.25C174.756 109.1 174.128 117.91 168.137 123.75C161.215 130.51 149.839 131.28 130.397 131.28Z" fill="#4285F4"/>
<path d="M149.626 184.94L137.162 184.78C137.229 179.78 137.364 170.46 135.423 168.59C133.482 166.72 125.247 166.89 114.713 166.99C112.177 166.99 109.316 166.99 106.254 166.99H99.8478V155.1H106.231C109.238 155.1 112.088 155.1 114.589 155.04C130.139 154.9 138.71 154.82 144.252 160.16C149.502 165.22 149.794 173.25 149.626 184.94Z" fill="#4285F4"/>
<path d="M260.175 152.98H226.304V43.22H261.675C272.323 43.22 281.434 45.4173 289.008 49.812C296.583 54.171 302.389 60.4414 306.426 68.6234C310.464 76.7697 312.482 86.5237 312.482 97.8856C312.482 109.319 310.446 119.162 306.373 127.416C302.3 135.633 296.368 141.958 288.58 146.388C280.791 150.783 271.322 152.98 260.175 152.98ZM239.595 141.189H259.317C268.393 141.189 275.914 139.439 281.88 135.937C287.847 132.436 292.295 127.451 295.225 120.985C298.155 114.518 299.62 106.818 299.62 97.8856C299.62 89.0248 298.173 81.3966 295.279 75.0011C292.385 68.5698 288.061 63.6392 282.309 60.2092C276.557 56.7435 269.393 55.0106 260.818 55.0106H239.595V141.189ZM366.505 154.695C359.073 154.695 352.553 152.926 346.943 149.389C341.369 145.852 337.01 140.904 333.866 134.544C330.758 128.184 329.204 120.752 329.204 112.249C329.204 103.674 330.758 96.1885 333.866 89.7929C337.01 83.3974 341.369 78.4311 346.943 74.8939C352.553 71.3567 359.073 69.5881 366.505 69.5881C373.936 69.5881 380.439 71.3567 386.013 74.8939C391.622 78.4311 395.981 83.3974 399.09 89.7929C402.234 96.1885 403.806 103.674 403.806 112.249C403.806 120.752 402.234 128.184 399.09 134.544C395.981 140.904 391.622 145.852 386.013 149.389C380.439 152.926 373.936 154.695 366.505 154.695ZM366.505 143.333C372.15 143.333 376.795 141.886 380.439 138.992C384.084 136.098 386.781 132.293 388.532 127.577C390.283 122.86 391.158 117.751 391.158 112.249C391.158 106.746 390.283 101.619 388.532 96.8673C386.781 92.1153 384.084 88.2745 380.439 85.3447C376.795 82.4149 372.15 80.95 366.505 80.95C360.86 80.95 356.215 82.4149 352.57 85.3447C348.926 88.2745 346.229 92.1153 344.478 96.8673C342.727 101.619 341.852 106.746 341.852 112.249C341.852 117.751 342.727 122.86 344.478 127.577C346.229 132.293 348.926 136.098 352.57 138.992C356.215 141.886 360.86 143.333 366.505 143.333ZM456.556 154.695C448.838 154.695 442.193 152.873 436.619 149.228C431.045 145.584 426.758 140.564 423.756 134.169C420.755 127.773 419.254 120.466 419.254 112.249C419.254 103.888 420.791 96.51 423.864 90.1145C426.972 83.6833 431.295 78.6633 436.833 75.0547C442.407 71.4103 448.91 69.5881 456.341 69.5881C462.129 69.5881 467.346 70.66 471.991 72.8037C476.636 74.9475 480.441 77.9487 483.406 81.8075C486.372 85.6662 488.212 90.1681 488.926 95.3131H476.278C475.314 91.5615 473.17 88.2387 469.847 85.3447C466.56 82.4149 462.129 80.95 456.556 80.95C451.625 80.95 447.302 82.2362 443.586 84.8087C439.906 87.3455 437.03 90.9363 434.957 95.5811C432.921 100.19 431.903 105.603 431.903 111.82C431.903 118.18 432.903 123.718 434.904 128.434C436.94 133.15 439.799 136.813 443.479 139.421C447.195 142.029 451.554 143.333 456.556 143.333C459.843 143.333 462.826 142.761 465.506 141.618C468.186 140.475 470.454 138.831 472.312 136.687C474.17 134.544 475.492 131.971 476.278 128.97H488.926C488.212 133.829 486.443 138.206 483.621 142.1C480.834 145.959 477.136 149.032 472.527 151.319C467.953 153.57 462.63 154.695 456.556 154.695ZM559.295 119.323V70.66H571.943V152.98H559.295V139.046H558.437C556.508 143.226 553.507 146.781 549.434 149.711C545.361 152.605 540.216 154.052 533.999 154.052C528.854 154.052 524.28 152.926 520.279 150.675C516.277 148.389 513.133 144.959 510.846 140.385C508.56 135.776 507.416 129.97 507.416 122.967V70.66H520.064V122.11C520.064 128.112 521.744 132.9 525.102 136.473C528.496 140.046 532.82 141.832 538.072 141.832C541.216 141.832 544.414 141.029 547.665 139.421C550.952 137.813 553.703 135.348 555.919 132.025C558.169 128.702 559.295 124.468 559.295 119.323ZM595.109 152.98V70.66H607.328V83.5225H608.4C610.115 79.1278 612.884 75.7157 616.707 73.2861C620.53 70.8208 625.121 69.5881 630.481 69.5881C635.912 69.5881 640.431 70.8208 644.04 73.2861C647.684 75.7157 650.525 79.1278 652.561 83.5225H653.419C655.527 79.2707 658.689 75.8943 662.905 73.3933C667.121 70.8565 672.177 69.5881 678.072 69.5881C685.432 69.5881 691.453 71.8926 696.133 76.5017C700.814 81.075 703.154 88.203 703.154 97.8856V152.98H690.506V97.8856C690.506 91.8116 688.844 87.4706 685.522 84.8623C682.199 82.2541 678.286 80.95 673.785 80.95C667.996 80.95 663.512 82.7007 660.333 86.2022C657.153 89.6679 655.563 94.0626 655.563 99.3862V152.98H642.7V96.5994C642.7 91.9188 641.182 88.1494 638.145 85.2911C635.108 82.397 631.195 80.95 626.408 80.95C623.121 80.95 620.048 81.8253 617.19 83.5761C614.367 85.3268 612.08 87.7564 610.33 90.8648C608.615 93.9375 607.757 97.4926 607.757 101.53V152.98H595.109ZM760.794 154.695C752.862 154.695 746.02 152.944 740.268 149.443C734.551 145.906 730.138 140.975 727.03 134.651C723.957 128.291 722.421 120.895 722.421 112.463C722.421 104.031 723.957 96.5994 727.03 90.1681C730.138 83.7011 734.462 78.6633 740 75.0547C745.573 71.4103 752.076 69.5881 759.508 69.5881C763.795 69.5881 768.029 70.3027 772.21 71.7319C776.39 73.161 780.195 75.4834 783.625 78.699C787.055 81.8789 789.788 86.095 791.825 91.3472C793.861 96.5994 794.88 103.066 794.88 110.748V116.107H731.425V105.174H782.017C782.017 100.53 781.088 96.385 779.23 92.7406C777.408 89.0962 774.8 86.22 771.406 84.112C768.047 82.004 764.081 80.95 759.508 80.95C754.47 80.95 750.111 82.2005 746.431 84.7015C742.787 87.1669 739.982 90.3825 738.017 94.3484C736.052 98.3144 735.069 102.566 735.069 107.104V114.392C735.069 120.609 736.141 125.879 738.285 130.203C740.464 134.49 743.483 137.759 747.342 140.01C751.201 142.226 755.685 143.333 760.794 143.333C764.117 143.333 767.118 142.869 769.798 141.94C772.513 140.975 774.853 139.546 776.819 137.652C778.784 135.723 780.302 133.329 781.374 130.471L793.593 133.901C792.307 138.045 790.146 141.69 787.109 144.834C784.072 147.942 780.32 150.372 775.854 152.122C771.388 153.837 766.368 154.695 760.794 154.695ZM826.768 103.459V152.98H814.12V70.66H826.339V83.5225H827.411C829.34 79.3422 832.27 75.9836 836.2 73.4469C840.131 70.8744 845.204 69.5881 851.421 69.5881C856.995 69.5881 861.872 70.7314 866.052 73.0181C870.232 75.269 873.484 78.699 875.806 83.3081C878.129 87.8814 879.29 93.6696 879.29 100.672V152.98H866.642V101.53C866.642 95.063 864.962 90.0252 861.604 86.4165C858.245 82.7722 853.636 80.95 847.777 80.95C843.739 80.95 840.131 81.8253 836.951 83.5761C833.807 85.3268 831.323 87.8814 829.501 91.24C827.679 94.5985 826.768 98.6716 826.768 103.459ZM938.203 70.66V81.3787H895.542V70.66H938.203ZM907.976 50.9375H920.624V129.399C920.624 132.972 921.142 135.651 922.178 137.438C923.25 139.189 924.608 140.368 926.251 140.975C927.931 141.547 929.699 141.832 931.557 141.832C932.951 141.832 934.094 141.761 934.987 141.618C935.88 141.439 936.595 141.297 937.131 141.189L939.703 152.551C938.846 152.873 937.649 153.194 936.113 153.516C934.576 153.873 932.629 154.052 930.271 154.052C926.698 154.052 923.196 153.284 919.766 151.747C916.372 150.211 913.55 147.871 911.299 144.727C909.083 141.582 907.976 137.616 907.976 132.829V50.9375ZM1005.89 152.98H991.957L1032.26 43.22H1045.98L1086.28 152.98H1072.35L1039.55 60.5844H1038.69L1005.89 152.98ZM1011.04 110.105H1067.2V121.896H1011.04V110.105ZM1116.67 43.22V152.98H1103.38V43.22H1116.67Z" fill="#4285F4"/>
</g>
<defs>
<clipPath id="clip0_23_16">
<rect width="1194" height="215" fill="white"/>
</clipPath>
</defs>
</svg>
