<svg width="57" height="58" viewBox="0 0 57 58" fill="none" xmlns="http://www.w3.org/2000/svg">
<rect x="0.519531" width="55.8442" height="57.4074" rx="10" fill="#ECEFF7"/>
<path opacity="0.3" d="M27.2132 17.2222C27.83 17.2222 28.3301 17.7362 28.3301 18.3703C28.3301 19.0044 27.83 19.5185 27.2132 19.5185H21.7405C20.5068 19.5185 19.5067 20.5466 19.5067 21.8148V35.5925C19.5067 36.8607 20.5068 37.8888 21.7405 37.8888H35.1431C36.3768 37.8888 37.3768 36.8607 37.3768 35.5925V33.2962C37.3768 32.6621 37.8769 32.1481 38.4937 32.1481C39.1106 32.1481 39.6106 32.6621 39.6106 33.2962V35.5925C39.6106 38.129 37.6104 40.1851 35.1431 40.1851H21.7405C19.2731 40.1851 17.2729 38.129 17.2729 35.5925V21.8148C17.2729 19.2783 19.2731 17.2222 21.7405 17.2222H27.2132Z" fill="#1B8F4B"/>
<path d="M22.8622 30.8822C22.8622 30.0065 22.6797 26.5506 25.3316 23.8087C27.1165 21.9635 29.7877 21.6434 32.9822 21.4975V16.8173C32.9822 16.1617 33.7642 15.8216 34.2437 16.2688L41.7463 23.2659C42.062 23.5603 42.0646 24.0599 41.7519 24.3576L34.2493 31.5002C33.7718 31.9549 32.9822 31.6164 32.9822 30.957V26.3014C30.9539 26.3587 29.5092 26.4914 28.1965 26.9207C25.6543 27.752 24.1479 31.3227 23.7456 32.3986C23.6771 32.5817 23.5036 32.7066 23.3081 32.7066V32.7066C23.0591 32.7066 22.8572 32.5047 22.858 32.2557C22.8594 31.7793 22.8622 31.228 22.8622 30.8822Z" fill="#4285F4"/>
</svg>
