<svg width="57" height="58" viewBox="0 0 57 58" fill="none" xmlns="http://www.w3.org/2000/svg">
<rect x="0.519531" width="55.8442" height="57.4074" rx="10" fill="#ECEFF7"/>
<path d="M25.4211 35.0001H23C21.8954 35.0001 21 34.1047 21 33.0001V26.92C21 26.3361 21.2551 25.7814 21.6984 25.4015L26.6984 21.1158C27.4474 20.4738 28.5526 20.4738 29.3016 21.1158L34.3016 25.4015C34.7449 25.7814 35 26.3361 35 26.92V33.0001C35 34.1047 34.1046 35.0001 33 35.0001H30.5789M25.4211 35.0001V29.5001C25.4211 28.6717 26.0926 28.0001 26.9211 28.0001H29.0789C29.9074 28.0001 30.5789 28.6717 30.5789 29.5001V35.0001M25.4211 35.0001H30.5789" stroke="#4285F4" stroke-width="1.3"/>
</svg>
