<svg xmlns="http://www.w3.org/2000/svg" xmlns:xlink="http://www.w3.org/1999/xlink" viewBox="0 0 135.17 135.17"><defs><style>.cls-1{fill:url(#linear-gradient);}</style><linearGradient id="linear-gradient" x1="527.6" y1="199.1" x2="523.03" y2="199.1" gradientTransform="translate(592.11 266.69) rotate(180)" gradientUnits="userSpaceOnUse"><stop offset="0" stop-color="#4d4d4d"/><stop offset="0.2" stop-color="#444"/><stop offset="0.54" stop-color="#2c2c2c"/><stop offset="0.95" stop-color="#050505"/><stop offset="1"/></linearGradient></defs><g id="Layer_2" data-name="Layer 2"><g id="Layer_1-2" data-name="Layer 1"><path class="cls-1" d="M83.13,0l3.38,21.29a45.83,45.83,0,0,1,6.76,3.21,46.86,46.86,0,0,1,6.25,4.22l19.94-9.12,15.71,27.71L116.92,60.66a19.92,19.92,0,0,1,.43,3.46c.05,1.3.08,2.45.08,3.47s0,2.16-.08,3.46a19.79,19.79,0,0,1-.43,3.46l18.25,13.35-15.71,27.71-19.94-9.12a46.86,46.86,0,0,1-6.25,4.22,34.84,34.84,0,0,1-6.76,3l-3.38,21.46H52l-3.38-21.29a55.57,55.57,0,0,1-6.84-3.12,29.22,29.22,0,0,1-6.17-4.31l-19.94,9.12L0,87.86l18.25-13a22.46,22.46,0,0,1-.42-3.63q-.09-1.95-.09-3.63c0-1.13,0-2.31.09-3.55a22.25,22.25,0,0,1,.42-3.55L0,47.31,15.71,19.6l19.94,9.12a55.3,55.3,0,0,1,6.17-4.3,29.61,29.61,0,0,1,6.84-3.13L52,0ZM67.59,46.23a21.92,21.92,0,0,0-22,22,21.92,21.92,0,0,0,22,22,21.92,21.92,0,0,0,22-22,21.92,21.92,0,0,0-22-22Z"/></g></g></svg>