<svg xmlns="http://www.w3.org/2000/svg" xmlns:xlink="http://www.w3.org/1999/xlink" viewBox="0 0 135.17 135.17"><defs><style>.cls-1{fill:url(#linear-gradient);}</style><linearGradient id="linear-gradient" x1="68.66" y1="67.59" x2="68.96" y2="67.59" gradientUnits="userSpaceOnUse"><stop offset="0" stop-color="#3fa9f5" stop-opacity="0.8"/><stop offset="0.43" stop-color="#3d9bee" stop-opacity="0.86"/><stop offset="1" stop-color="#3a7ce0"/></linearGradient></defs><g id="Layer_2" data-name="Layer 2"><g id="Layer_1-2" data-name="Layer 1"><path class="cls-1" d="M52,135.17l-3.38-21.29a45.83,45.83,0,0,1-6.76-3.21,46.86,46.86,0,0,1-6.25-4.22l-19.94,9.12L0,87.86,18.25,74.51a18.93,18.93,0,0,1-.42-3.46c-.06-1.3-.09-2.45-.09-3.46s0-2.17.09-3.47a19,19,0,0,1,.42-3.46L0,47.31,15.71,19.6l19.94,9.12A46.86,46.86,0,0,1,41.9,24.5a34.84,34.84,0,0,1,6.76-3L52,0H83.13l3.38,21.29a54.26,54.26,0,0,1,6.84,3.13,28.94,28.94,0,0,1,6.17,4.3l19.94-9.12,15.71,27.71-18.25,13a23.75,23.75,0,0,1,.43,3.63c.05,1.3.08,2.51.08,3.64s0,2.31-.08,3.54a23.29,23.29,0,0,1-.43,3.55l18.25,13.18-15.71,27.71-19.94-9.12a56.67,56.67,0,0,1-6.17,4.31,29.55,29.55,0,0,1-6.84,3.12l-3.38,21.29ZM67.59,88.94a21.92,21.92,0,0,0,22-22,21.92,21.92,0,0,0-22-22,21.92,21.92,0,0,0-22,22,21.92,21.92,0,0,0,22,22Z"/></g></g></svg>