<svg xmlns="http://www.w3.org/2000/svg" xmlns:xlink="http://www.w3.org/1999/xlink" viewBox="0 0 154.72 126.59"><defs><style>.cls-1{fill:url(#linear-gradient);}</style><linearGradient id="linear-gradient" x1="75.36" y1="65.53" x2="68.55" y2="60.76" gradientUnits="userSpaceOnUse"><stop offset="0" stop-color="#4d4d4d"/><stop offset="0.2" stop-color="#444"/><stop offset="0.54" stop-color="#2c2c2c"/><stop offset="0.95" stop-color="#050505"/><stop offset="1"/></linearGradient></defs><g id="Layer_2" data-name="Layer 2"><g id="Layer_1-2" data-name="Layer 1"><path class="cls-1" d="M49.74,77.36H60.29V62.19a8.89,8.89,0,0,1,2.87-6.75,10.11,10.11,0,0,1,7.19-2.7H84.9V64.39l17.85-17.07L84.9,30.25v12H70.07a19.66,19.66,0,0,0-11.7,3.65Q49.75,52.23,49.74,62ZM5.27,126.59a5.28,5.28,0,1,1,0-10.55H149.44a5.28,5.28,0,1,1,0,10.55Zm12.82-21.1a10.12,10.12,0,0,1-7.38-3.17,10.11,10.11,0,0,1-3.16-7.38V10.55a10.13,10.13,0,0,1,3.16-7.39A10.11,10.11,0,0,1,18.09,0H137.65A10.11,10.11,0,0,1,145,3.16a10.14,10.14,0,0,1,3.17,7.39V94.94a10.84,10.84,0,0,1-10.55,10.55Z"/></g></g></svg>