<svg width="27" height="27" viewBox="0 0 27 27" fill="none" xmlns="http://www.w3.org/2000/svg">
<path d="M19.5008 12.0663L20.0006 12.0786L20.0006 12.0785L19.5008 12.0663ZM19.5653 9.62467L20.0646 9.65049L20.065 9.64325L20.0651 9.63601L19.5653 9.62467ZM12.0538 2.27211L12.0433 2.772L12.0435 2.77201L12.0538 2.27211ZM4.20034 9.29779L3.70043 9.28579L3.70036 9.29355L4.20034 9.29779ZM4.14606 11.7432L3.64621 11.7311L3.6462 11.7315L4.14606 11.7432ZM1.31519 18.6155L1.66112 18.9765L1.66131 18.9763L1.31519 18.6155ZM2.38445 21.0542L2.39504 20.5543L2.39452 20.5543L2.38445 21.0542ZM20.8086 21.4444L20.7981 21.9443L20.7987 21.9443L20.8086 21.4444ZM15.2534 23.052L15.7299 23.2035L15.9326 22.5662L15.2639 22.5521L15.2534 23.052ZM8.18036 22.9034L8.19086 22.4035L7.52229 22.3895L7.69791 23.0347L8.18036 22.9034ZM22.3577 18.7077C21.8896 18.2164 21.2988 17.6759 20.8144 16.7036C20.3324 15.7361 19.9454 14.3103 20.0006 12.0786L19.0009 12.0539C18.9424 14.4159 19.3512 16.0092 19.9193 17.1495C20.485 18.2849 21.1985 18.9408 21.6337 19.3975L22.3577 18.7077ZM20.0006 12.0785C20.0021 12.016 20.0167 11.4356 20.0317 10.8559C20.0392 10.566 20.0468 10.2766 20.0528 10.0522C20.0559 9.94002 20.0586 9.84439 20.0606 9.77324C20.0617 9.73764 20.0626 9.70853 20.0633 9.6867C20.0637 9.67577 20.064 9.66703 20.0642 9.6604C20.0645 9.65312 20.0646 9.65039 20.0646 9.65049L19.0659 9.59886C19.0593 9.72673 19.0038 11.9357 19.0009 12.054L20.0006 12.0785ZM20.0651 9.63601C20.1622 5.35714 16.552 1.86552 12.0642 1.77222L12.0435 2.77201C16.0401 2.85509 19.1486 5.94722 19.0654 9.61333L20.0651 9.63601ZM12.0644 1.77222C7.57835 1.67795 3.80308 5.00907 3.70049 9.28579L4.7002 9.30978C4.78811 5.64535 8.04494 2.68798 12.0433 2.772L12.0644 1.77222ZM3.70036 9.29355C3.69938 9.4092 3.64935 11.6015 3.64621 11.7311L4.64591 11.7553C4.64891 11.6318 4.69926 9.42794 4.70033 9.30203L3.70036 9.29355ZM3.6462 11.7315C3.59396 13.9641 3.13827 15.3717 2.60951 16.3176C2.07798 17.2684 1.46094 17.7829 0.969076 18.2547L1.66131 18.9763C2.11785 18.5384 2.86248 17.9145 3.48239 16.8055C4.10508 15.6916 4.59063 14.1179 4.64592 11.7549L3.6462 11.7315ZM0.969266 18.2545C-0.287951 19.4592 0.591084 21.5182 2.37438 21.5541L2.39452 20.5543C1.41865 20.5346 1.10757 19.5069 1.66112 18.9765L0.969266 18.2545ZM2.37387 21.5541L20.7981 21.9443L20.8192 20.9445L2.39504 20.5543L2.37387 21.5541ZM20.7987 21.9443C21.6231 21.9606 22.3234 21.5007 22.6648 20.8656C23.0158 20.2129 22.9861 19.3719 22.3589 18.709L21.6325 19.3963C21.9413 19.7227 21.9465 20.09 21.7841 20.392C21.6122 20.7118 21.2509 20.953 20.8186 20.9445L20.7987 21.9443ZM11.6466 26.0127C13.5491 26.0504 15.1974 24.8779 15.7299 23.2035L14.7769 22.9004C14.3857 24.1307 13.1498 25.0423 11.6664 25.0129L11.6466 26.0127ZM15.2639 22.5521L8.19086 22.4035L8.16986 23.4033L15.2429 23.5519L15.2639 22.5521ZM7.69791 23.0347C8.15685 24.7209 9.74218 25.9706 11.6454 26.0126L11.6675 25.0129C10.1889 24.9802 9.00069 24.0135 8.66281 22.7721L7.69791 23.0347Z" fill="#25396F"/>
<path d="M21.0604 9.08107C23.2637 9.08107 25.1646 7.39387 25.1646 5.17567C25.1646 2.95747 23.2637 1.27026 21.0604 1.27026C18.8571 1.27026 16.9562 2.95747 16.9562 5.17567C16.9562 7.39387 18.8571 9.08107 21.0604 9.08107Z" fill="#FF6E91" stroke="white" stroke-width="2"/>
</svg>
