<svg width="57" height="58" viewBox="0 0 57 58" fill="none" xmlns="http://www.w3.org/2000/svg">
<rect x="0.51947" width="55.8442" height="57.4074" rx="10" fill="#ECEFF7"/>
<rect opacity="0.3" x="18" y="17" width="4" height="4" rx="1" fill="#068A3C"/>
<path fill-rule="evenodd" clip-rule="evenodd" d="M25 17C24.4477 17 24 17.4477 24 18V20C24 20.5523 24.4477 21 25 21H27C27.5523 21 28 20.5523 28 20V18C28 17.4477 27.5523 17 27 17H25ZM19 23C18.4477 23 18 23.4477 18 24V26C18 26.5523 18.4477 27 19 27H21C21.5523 27 22 26.5523 22 26V24C22 23.4477 21.5523 23 21 23H19ZM24 24C24 23.4477 24.4477 23 25 23H27C27.5523 23 28 23.4477 28 24V26C28 26.5523 27.5523 27 27 27H25C24.4477 27 24 26.5523 24 26V24ZM31 17C30.4477 17 30 17.4477 30 18V20C30 20.5523 30.4477 21 31 21H33C33.5523 21 34 20.5523 34 20V18C34 17.4477 33.5523 17 33 17H31ZM30 24C30 23.4477 30.4477 23 31 23H33C33.5523 23 34 23.4477 34 24V26C34 26.5523 33.5523 27 33 27H31C30.4477 27 30 26.5523 30 26V24ZM19 29C18.4477 29 18 29.4477 18 30V32C18 32.5523 18.4477 33 19 33H21C21.5523 33 22 32.5523 22 32V30C22 29.4477 21.5523 29 21 29H19ZM24 30C24 29.4477 24.4477 29 25 29H27C27.5523 29 28 29.4477 28 30V32C28 32.5523 27.5523 33 27 33H25C24.4477 33 24 32.5523 24 32V30ZM31 29C30.4477 29 30 29.4477 30 30V32C30 32.5523 30.4477 33 31 33H33C33.5523 33 34 32.5523 34 32V30C34 29.4477 33.5523 29 33 29H31Z" fill="#068A3C"/>
</svg>
