<svg width="57" height="58" viewBox="0 0 57 58" fill="none" xmlns="http://www.w3.org/2000/svg">
<rect x="0.51947" width="55.8442" height="57.4074" rx="10" fill="#ECEFF7"/>
<path fill-rule="evenodd" clip-rule="evenodd" d="M34 22H29V17C29 17 29 16 28 16C27 16 27 17 27 17V24H34C34 24 35 23.8284 35 23C35 22.1716 34 22 34 22ZM19 27H24V32C24 32 24 33 25 33C26 33 26 32 26 32V25H19C19 25 18 25.1716 18 26C18 26.8284 19 27 19 27Z" fill="#158B47"/>
<path opacity="0.3" fill-rule="evenodd" clip-rule="evenodd" d="M30.8787 18.7071C30.4882 19.0976 30.4882 19.7308 30.8787 20.1213C31.2692 20.5118 31.9024 20.5118 32.2929 20.1213L35.1213 17.2929C35.5119 16.9024 35.5119 16.2692 35.1213 15.8787C34.7308 15.4882 34.0977 15.4882 33.7071 15.8787L30.8787 18.7071ZM17.8787 31.7071C17.4882 32.0976 17.4882 32.7308 17.8787 33.1213C18.2692 33.5118 18.9024 33.5118 19.2929 33.1213L22.1213 30.2929C22.5119 29.9024 22.5119 29.2692 22.1213 28.8787C21.7308 28.4882 21.0977 28.4882 20.7071 28.8787L17.8787 31.7071Z" fill="#158B47"/>
</svg>
