<svg width="57" height="58" viewBox="0 0 57 58" fill="none" xmlns="http://www.w3.org/2000/svg">
<rect x="0.51947" width="55.8442" height="57.4074" rx="10" fill="#ECEFF7"/>
<path d="M31.35 32.875H32.775C33.0125 32.875 33.25 32.6375 33.25 32.4V27.4125C33.25 27.175 33.0125 26.9375 32.775 26.9375H31.35C31.1125 26.9375 30.875 27.175 30.875 27.4125V32.4C30.875 32.6375 31.1125 32.875 31.35 32.875ZM34.9125 32.875H36.3375C36.575 32.875 36.8125 32.6375 36.8125 32.4V23.85C36.8125 23.6125 36.575 23.375 36.3375 23.375H34.9125C34.675 23.375 34.4375 23.6125 34.4375 23.85V32.4C34.4375 32.6375 34.675 32.875 34.9125 32.875ZM24.225 32.875H25.65C25.8875 32.875 26.125 32.6375 26.125 32.4V29.7875C26.125 29.55 25.8875 29.3125 25.65 29.3125H24.225C23.9875 29.3125 23.75 29.55 23.75 29.7875V32.4C23.75 32.6375 23.9875 32.875 24.225 32.875ZM27.7875 32.875H29.2125C29.45 32.875 29.6875 32.6375 29.6875 32.4V25.0375C29.6875 24.8 29.45 24.5625 29.2125 24.5625H27.7875C27.55 24.5625 27.3125 24.8 27.3125 25.0375V32.4C27.3125 32.6375 27.55 32.875 27.7875 32.875ZM37.4062 35.25H21.375V23.9688C21.375 23.6407 21.1093 23.375 20.7812 23.375H19.5938C19.2657 23.375 19 23.6407 19 23.9688V36.4375C19 37.0932 19.5318 37.625 20.1875 37.625H37.4062C37.7343 37.625 38 37.3593 38 37.0312V35.8438C38 35.5157 37.7343 35.25 37.4062 35.25Z" fill="#01468B"/>
</svg>
