<svg width="23" height="22" viewBox="0 0 23 22" fill="none" xmlns="http://www.w3.org/2000/svg">
<path d="M22.839 20.6403L19.0333 17.0783C20.7004 15.3458 21.725 13.0615 21.725 10.5519C21.725 5.16305 17.0408 0.778809 11.2833 0.778809C5.52579 0.778809 0.841614 5.16306 0.841614 10.5519C0.841614 15.9408 5.52579 20.325 11.2833 20.325C13.9646 20.325 16.4051 19.366 18.2562 17.8056L22.0619 21.3677C22.1692 21.4681 22.3098 21.5183 22.4504 21.5183C22.591 21.5183 22.7316 21.4681 22.839 21.3677C23.0536 21.1667 23.0536 20.8412 22.839 20.6403ZM11.2833 19.2963C6.13225 19.2963 1.94077 15.3736 1.94077 10.5519C1.94077 5.7302 6.13225 1.80754 11.2833 1.80754C16.4344 1.80754 20.6259 5.73015 20.6259 10.5519C20.6259 15.3737 16.4344 19.2963 11.2833 19.2963Z" fill="#229753"/>
</svg>
