<svg width="57" height="58" viewBox="0 0 57 58" fill="none" xmlns="http://www.w3.org/2000/svg">
<rect x="0.51947" width="55.8442" height="57.4074" rx="10" fill="#ECEFF7"/>
<path opacity="0.3" d="M27.213 17.2222C27.8298 17.2222 28.3298 17.7363 28.3298 18.3704C28.3298 19.0045 27.8298 19.5185 27.213 19.5185H21.7402C20.5066 19.5185 19.5065 20.5466 19.5065 21.8148V35.5926C19.5065 36.8608 20.5066 37.8889 21.7402 37.8889H35.1428C36.3765 37.8889 37.3766 36.8608 37.3766 35.5926V33.2963C37.3766 32.6622 37.8766 32.1482 38.4935 32.1482C39.1103 32.1482 39.6104 32.6622 39.6104 33.2963V35.5926C39.6104 38.129 37.6102 40.1852 35.1428 40.1852H21.7402C19.2729 40.1852 17.2727 38.129 17.2727 35.5926V21.8148C17.2727 19.2784 19.2729 17.2222 21.7402 17.2222H27.213Z" fill="#1B8F4B"/>
<path d="M22.8622 30.8821C22.8622 30.0064 22.6796 26.5505 25.3316 23.8087C27.1164 21.9634 29.7876 21.6434 32.9821 21.4974V16.8172C32.9821 16.1616 33.7642 15.8216 34.2437 16.2688L41.7462 23.2658C42.062 23.5603 42.0645 24.0598 41.7518 24.3575L34.2493 31.5002C33.7717 31.9548 32.9821 31.6163 32.9821 30.957V26.3013C30.9539 26.3587 29.5091 26.4913 28.1965 26.9206C25.6543 27.752 24.1479 31.3226 23.7455 32.3985C23.677 32.5816 23.5036 32.7065 23.3081 32.7065C23.059 32.7065 22.8572 32.5047 22.8579 32.2556C22.8594 31.7792 22.8622 31.2279 22.8622 30.8821Z" fill="#EA0390"/>
</svg>
